<svg width="123" height="123" viewBox="0 0 123 123" fill="none" xmlns="http://www.w3.org/2000/svg">
<path d="M61.1521 120.388C93.7796 120.388 120.229 93.9124 120.229 61.2534C120.229 28.5945 93.7796 2.11914 61.1521 2.11914C28.5247 2.11914 2.07495 28.5945 2.07495 61.2534C2.07495 93.9124 28.5247 120.388 61.1521 120.388Z" stroke="black" stroke-width="4" stroke-linecap="round" stroke-linejoin="round"/>
<path d="M18.3486 101.395C25.6285 95.2707 28.2271 90.3267 33.0926 82.2466C37.2323 75.4087 40.5951 68.1288 43.1185 60.5428C44.6121 56.0752 45.8005 51.5112 46.6755 46.8823C47.3377 43.3688 47.7748 39.8165 47.984 36.2471C48.005 34.8752 48.1469 33.5079 48.4079 32.1609C48.9239 29.9657 50.8959 26.9033 53.5038 28.3146C55.3467 29.3015 56.2682 32.2163 56.4986 34.1533C56.7925 37.0017 56.712 39.8764 56.259 42.7038C55.6151 47.0632 54.6917 51.3766 53.4945 55.6173" stroke="black" stroke-width="4" stroke-linecap="round" stroke-linejoin="round"/>
<path d="M55.9915 30.5657C55.9915 30.5657 59.0785 26.1383 63.2436 30.3997C66.9296 34.0893 63.7412 51.6146 61.9535 57.149" stroke="black" stroke-width="4" stroke-linecap="round" stroke-linejoin="round"/>
<path d="M64.5063 32.3553C65.0024 31.4721 65.828 30.8218 66.8022 30.5469C67.7764 30.272 68.8197 30.3949 69.7036 30.8887C69.9084 31.007 70.1026 31.1428 70.2841 31.2945C73.9701 33.8588 73.3251 48.4786 69.7312 59.3259" stroke="black" stroke-width="4" stroke-linecap="round" stroke-linejoin="round"/>
<path d="M72.2928 34.7536C72.2928 34.7536 73.9515 30.7136 77.8955 32.6137C81.8395 34.5138 85.3689 42.6492 75.8959 71.2986C77.9656 68.5341 80.5935 66.2367 83.6088 64.556C85.8757 63.3476 88.9074 62.1854 91.4508 63.0801C93.4228 63.7719 95.3856 65.7366 93.9757 67.8581C93.5949 68.3583 93.1109 68.7705 92.5566 69.0664C87.0921 72.5162 81.8027 75.5508 77.5546 80.5225C69.5744 89.9216 61.6864 105.842 57.4475 120.259" stroke="black" stroke-width="4" stroke-linecap="round" stroke-linejoin="round"/>
<path d="M82.6785 27.208C83.9877 27.8731 85.1156 28.847 85.9649 30.0458C86.8142 31.2446 87.3593 32.6323 87.5532 34.089" stroke="black" stroke-width="4" stroke-linecap="round" stroke-linejoin="round"/>
<path d="M87.6545 24.0723C88.7472 24.6396 89.7021 25.4399 90.452 26.4169C91.202 27.3938 91.7286 28.5236 91.9948 29.7265" stroke="black" stroke-width="4" stroke-linecap="round" stroke-linejoin="round"/>
<path d="M44.648 17.043C42.5531 17.6893 40.7151 18.9803 39.3955 20.7325" stroke="black" stroke-width="4" stroke-linecap="round" stroke-linejoin="round"/>
<path d="M49.6332 21.2956C48.4559 21.2469 47.2874 21.5178 46.2513 22.0796C45.0815 22.6286 44.0559 23.4435 43.2565 24.4594C42.7396 25.2237 42.31 26.0436 41.9756 26.9037" stroke="black" stroke-width="4" stroke-linecap="round" stroke-linejoin="round"/>
</svg>
