<svg width="210" height="210" viewBox="0 0 210 210" fill="none" xmlns="http://www.w3.org/2000/svg">
<path d="M106.212 4.94434L108.746 5.02735L108.138 23.7518L105.594 23.6688L106.212 4.94434Z" fill="black"/>
<path d="M144.261 12.3604L133.903 28.8804L130.973 28.041L130.853 11.5303L121.951 25.4583L119.048 24.6282L118.975 5.12891L121.573 5.86682L121.463 22.2023L130.106 8.30192L133.239 9.22431V25.735L141.736 11.6686L144.261 12.3604Z" fill="black"/>
<path d="M151.218 33.0404L143.45 28.5945L139.764 31.5738L137.441 30.2271L153.3 17.6826L155.65 19.0385L152.784 39.0543L150.462 37.7261L151.218 33.0404ZM151.55 30.7898L153.107 20.7542L145.228 27.1555L151.55 30.7898Z" fill="black"/>
<path d="M177.112 35.9734L164.579 49.8092L162.331 47.7708L165.768 29.8488L155.309 41.397L153.466 39.746L165.998 25.9102L168.404 28.0962L165.059 45.6216L175.269 34.3408L177.112 35.9734Z" fill="black"/>
<path d="M190.234 52.8625L175.084 63.8112L173.241 61.33L180.365 44.4964L167.713 53.6281L166.284 51.6542L181.47 40.6777L183.378 43.3527L176.439 59.7988L188.806 50.8793L190.234 52.8625Z" fill="black"/>
<path d="M184.972 74.9716L181.397 66.7808L176.706 66.993L175.637 64.5671L195.781 63.9307L196.86 66.4119L182.705 80.7273L181.627 78.2738L184.972 74.9716ZM186.576 73.3667L193.763 66.2551L183.627 66.6978L186.576 73.3667Z" fill="black"/>
<path d="M205.595 108.353L186.428 104.866L186.142 101.832L201.412 95.578L185.184 92.488L184.852 89.4718L202.914 82.1572L203.19 84.8414L187.985 90.8184L204.075 93.6871L204.416 96.9339L189.11 103.105L205.319 105.77L205.595 108.353Z" fill="black"/>
<path d="M195.744 111.858C201.329 112.781 204.665 117.337 203.743 122.687C202.822 128.037 198.214 131.164 192.602 130.205C186.99 129.245 183.728 124.726 184.65 119.403C185.571 114.081 190.215 110.899 195.744 111.858ZM193.026 127.714C197.339 128.461 200.877 126.229 201.55 122.309C202.223 118.389 199.624 115.114 195.311 114.367C190.999 113.62 187.515 115.834 186.843 119.782C186.17 123.729 188.769 126.986 193.026 127.714Z" fill="black"/>
<path d="M177.453 142.906L178.374 140.545L182.853 141.31C185.258 141.707 186.649 140.905 187.543 138.672L188.907 135.269L181.673 132.354L182.595 130.002L199.965 136.994L197.2 143.967C195.818 147.389 193.035 148.809 190.059 147.61C189.039 147.239 188.17 146.54 187.59 145.622C187.009 144.704 186.75 143.619 186.852 142.537C186.284 143.111 185.576 143.525 184.798 143.739C184.02 143.952 183.2 143.958 182.42 143.755L177.453 142.906ZM189.119 140.628C188.299 142.657 188.99 144.465 190.796 145.194C192.602 145.922 194.381 145.111 195.182 143.1L197.025 138.534L190.943 136.08L189.119 140.628Z" fill="black"/>
<path d="M181.452 154.731L180.263 149.87L175.214 146.66L176.577 144.529L192.298 154.676L190.925 156.806L183.046 151.733L186.179 164.204L184.429 166.916L182.07 157.304L168.57 157.028L170.201 154.491L181.452 154.731Z" fill="black"/>
<path d="M174.301 174.774L169.777 170.033L163.713 175.835L162.184 174.23L168.256 168.428L162.893 162.82L164.736 161.059L177.637 174.599L168.938 182.901L167.427 181.314L174.301 174.774Z" fill="black"/>
<path d="M160.672 177.929C163.667 182.725 162.515 188.214 157.908 191.073C153.3 193.932 147.9 192.549 144.915 187.752C141.929 182.956 143.072 177.505 147.679 174.655C152.287 171.804 157.714 173.169 160.672 177.929ZM147.071 186.415C149.375 190.105 153.383 191.285 156.747 189.182C160.11 187.079 160.829 182.965 158.516 179.266C156.203 175.568 152.259 174.424 148.868 176.499C145.477 178.575 144.786 182.753 147.071 186.415Z" fill="black"/>
<path d="M125.434 185.049L127.821 184.182L130.244 188.029C131.562 190.076 133.073 190.584 135.34 189.754L138.777 188.499L136.114 181.12L138.501 180.253L144.896 197.861L137.837 200.426C134.373 201.689 131.451 200.555 130.355 197.538C129.95 196.531 129.891 195.418 130.186 194.373C130.481 193.328 131.114 192.411 131.986 191.764C131.181 191.724 130.401 191.472 129.723 191.035C129.046 190.598 128.495 189.991 128.125 189.274L125.434 185.049ZM134.926 192.216C132.861 192.963 131.977 194.679 132.649 196.515C133.322 198.35 135.101 199.125 137.137 198.359L141.745 196.671L139.505 190.51L134.926 192.216Z" fill="black"/>
<path d="M107.336 206.468L112.81 194.708L111.971 187.19L114.487 186.904L115.325 194.431L123.158 204.706L120.394 205.011L114.238 196.802L110.082 206.164L107.336 206.468Z" fill="black"/>
<path d="M105.548 197.391C105.06 203.018 100.839 206.698 95.467 206.227C90.0947 205.757 86.6022 201.403 87.0906 195.777C87.579 190.15 91.7902 186.553 97.1441 186.986C102.498 187.42 106.037 191.792 105.548 197.391ZM89.5971 195.998C89.2193 200.343 91.7165 203.672 95.6605 204.014C99.6045 204.355 102.636 201.514 103.033 197.17C103.429 192.825 100.941 189.541 96.9691 189.2C92.9974 188.859 89.9749 191.681 89.5971 195.971V195.998Z" fill="black"/>
<path d="M84.3446 192.918L80.9075 203.784L78.5116 203.018L81.9119 192.282C82.944 189.016 81.7921 186.461 78.9907 185.576C76.1894 184.69 73.8488 186.139 72.8167 189.404L69.4164 200.159L67.0205 199.402L70.4485 188.555C71.8768 184.045 75.4246 182.098 79.7372 183.501C84.0498 184.903 85.7637 188.426 84.3446 192.918Z" fill="black"/>
</svg>
