<svg width="121" height="121" viewBox="0 0 121 121" fill="none" xmlns="http://www.w3.org/2000/svg">
<path d="M119.321 71.9484C118.907 74.0791 80.7751 65.6116 80.0471 67.5947C79.3192 69.5778 113.829 87.8226 112.834 89.6674C111.839 91.5122 78.1489 71.6809 76.8219 73.3504C75.4949 75.0199 102.698 103.042 101.131 104.527C99.5645 106.012 73.7165 76.671 71.9472 77.8609C70.1779 79.0507 87.4191 114.148 85.484 115.024C83.5488 115.9 67.9755 80.0746 65.9114 80.6649C63.8472 81.2552 69.4591 119.931 67.3213 120.189C65.1834 120.447 61.5527 81.532 59.378 81.4489C57.2032 81.3659 50.5961 119.885 48.4767 119.461C46.3572 119.036 54.7981 80.8771 52.8261 80.1576C50.8541 79.4381 32.5993 113.972 30.7655 112.967C28.9317 111.962 48.7347 78.2483 47.076 76.9385C45.4173 75.6287 17.413 102.839 15.9202 101.28C14.4273 99.7214 43.7402 73.8024 42.5422 72.0314C41.3443 70.2604 6.29972 87.5275 5.44273 85.5905C4.58573 83.6535 40.3675 68.0651 39.7501 66.0266C39.1327 63.9882 0.512716 69.5594 0.254696 67.4287C-0.00332296 65.2979 38.8839 61.6545 38.9576 59.4777C39.0313 57.3008 0.604865 50.6965 1.01954 48.5566C1.43421 46.4167 39.5658 54.8934 40.2938 52.9195C41.0217 50.9456 6.51166 32.6823 7.52531 30.8375C8.53896 28.9928 42.2197 48.8333 43.4637 47.1546C44.7077 45.4758 17.6618 17.4629 19.1915 15.9779C20.7212 14.4928 46.6152 43.834 48.3845 42.6257C50.1538 41.4173 32.9033 6.35737 34.8385 5.4811C36.7736 4.60484 52.3469 40.4304 54.4019 39.8585C56.4568 39.2866 50.8357 0.574003 53.0012 0.315734C55.1667 0.0574657 58.7698 38.9361 60.9722 39.0837C63.1745 39.2313 69.7264 0.620122 71.8827 1.04442C74.039 1.46872 65.5796 39.6371 67.5332 40.3566C69.4868 41.076 87.7509 6.54185 89.5939 7.57492C91.4369 8.608 71.6154 42.2567 73.2834 43.548C74.9513 44.8394 102.992 17.7212 104.43 19.2431C105.868 20.7651 76.5731 46.6565 77.7618 48.4551C78.9506 50.2538 114.014 32.9498 114.88 34.896C115.746 36.8423 79.9734 52.4214 80.554 54.4876C81.1345 56.5537 119.791 50.9456 120.049 53.0763C120.307 55.207 81.4202 58.8505 81.3465 61.0365C81.2727 63.2226 119.745 69.8176 119.321 71.9484Z" fill="black"/>
</svg>
