<svg width="210" height="210" viewBox="0 0 210 210" fill="none" xmlns="http://www.w3.org/2000/svg">
<path d="M127.286 7.00998L124.863 25.5776L122.458 25.264L124.504 9.58344L116.652 24.5353L114.026 24.1941L110.34 7.8678L108.313 23.4377L105.834 23.0595L108.258 4.51953L111.944 4.99917L115.722 21.7128L123.683 6.53034L127.286 7.00998Z" fill="black"/>
<path d="M139.819 28.7598L139.063 30.8444L127.25 26.5738L133.617 8.97461L145.293 13.1991L144.546 15.2653L135.258 11.8986L133.267 17.4329L141.653 20.4676L140.916 22.5337L132.521 19.4898L130.392 25.3747L139.819 28.7598Z" fill="black"/>
<path d="M158.94 31.6652C155.982 36.5908 151.126 37.8176 146.463 35.0504L140.547 31.4992L150.204 15.4404L156.111 18.9916C160.774 21.8049 161.926 26.6843 158.94 31.6652ZM156.765 30.3554C159.023 26.5921 158.221 22.8288 154.876 20.818L151.19 18.6319L143.818 30.9089L147.504 33.0949C150.858 35.1057 154.526 34.128 156.765 30.3554Z" fill="black"/>
<path d="M167.206 26.6201L169.178 28.2251L157.383 42.7619L155.411 41.1569L167.206 26.6201Z" fill="black"/>
<path d="M171.002 50.0388L164.948 43.4991L160.59 45.2609L158.747 43.2962L177.536 36.0186L179.379 37.9925L170.763 56.265L168.92 54.3095L171.002 50.0388ZM171.988 47.9635L176.412 38.8687L167.031 42.6413L171.988 47.9635Z" fill="black"/>
<path d="M181.692 70.8026L179.748 71.8726L173.684 60.8777L190.068 51.8291L196.067 62.7225L194.151 63.7832L189.377 55.1128L184.244 57.9445L188.557 65.7664L186.64 66.8271L182.328 59.033L176.854 62.0584L181.692 70.8026Z" fill="black"/>
<path d="M202.859 81.9175L185.046 87.627L184.125 84.7215L196.104 70.8857L181.231 75.6544L180.485 73.3116L198.297 67.5928L199.302 70.7012L187.599 84.2327L202.112 79.6207L202.859 81.9175Z" fill="black"/>
<path d="M186.972 107.596C186.942 106.052 187.215 104.517 187.774 103.077C186.833 101.709 186.265 100.119 186.124 98.4648C185.636 93.0596 189.322 88.8166 194.906 88.3185C200.49 87.8204 204.923 91.3255 205.411 96.7307C205.9 102.136 202.214 106.342 196.574 106.877C194.032 107.168 191.477 106.464 189.442 104.912C189.172 105.809 189.041 106.743 189.055 107.679L186.972 107.596ZM189.082 100.835C190.26 99.4021 191.854 98.3707 193.644 97.8836L194.233 100.014C192.756 100.46 191.463 101.372 190.547 102.615C191.354 103.279 192.287 103.77 193.29 104.061C194.293 104.351 195.345 104.433 196.38 104.303C200.739 103.907 203.587 100.854 203.227 96.9244C202.868 92.995 199.541 90.4676 195.173 90.8551C190.805 91.2425 188.013 94.2771 188.373 98.2342C188.448 99.1375 188.688 100.019 189.082 100.835Z" fill="black"/>
<path d="M194.224 109.958L205.494 111.443L205.162 113.942L194.003 112.476C190.612 112.024 188.299 113.61 187.921 116.534C187.543 119.458 189.368 121.497 192.768 121.939L203.918 123.406L203.651 125.906L192.381 124.421C187.691 123.803 185.194 120.648 185.783 116.165C186.373 111.683 189.561 109.349 194.224 109.958Z" fill="black"/>
<path d="M202.195 130.905L201.522 133.35L183.479 128.387L184.152 125.934L202.195 130.905Z" fill="black"/>
<path d="M177.425 144.16L178.411 141.826L182.871 142.665C185.267 143.099 186.668 142.324 187.608 140.11L189.036 136.734L181.848 133.691L182.834 131.348L200.066 138.644L197.145 145.562C195.708 148.965 192.897 150.33 189.939 149.085C188.925 148.697 188.069 147.983 187.505 147.054C186.941 146.126 186.702 145.036 186.825 143.957C186.246 144.521 185.529 144.922 184.746 145.121C183.963 145.32 183.142 145.31 182.365 145.091L177.425 144.16ZM189.119 142.047C188.271 144.067 188.926 145.884 190.722 146.659C192.519 147.434 194.298 146.659 195.146 144.63L197.062 140.101L191.027 137.546L189.119 142.047Z" fill="black"/>
<path d="M184.161 167.957L178.632 156.151L172.32 151.945L173.73 149.823L180.051 154.039L193.008 154.647L191.469 156.963L181.176 156.4L185.682 165.624L184.161 167.957Z" fill="black"/>
<path d="M171.896 180.695L170.053 182.457L160.525 158.244L162.368 156.482L171.896 180.695Z" fill="black"/>
<path d="M156.268 176.019L154.756 177.725C153.962 176.888 152.894 176.366 151.746 176.254C150.598 176.142 149.449 176.448 148.509 177.116C146.15 178.555 145.228 180.584 146.205 182.18C148.969 186.7 156.148 177.31 160.101 183.767C161.769 186.534 160.682 189.725 157.337 191.736C154.48 193.489 151.586 193.166 149.439 191.229L151.006 189.495C151.739 190.128 152.659 190.504 153.626 190.566C154.592 190.627 155.552 190.371 156.36 189.836C158.405 188.581 159.041 186.663 158.138 185.224C155.447 180.806 148.177 190.223 144.224 183.748C142.427 180.815 143.8 177.504 147.486 175.244C150.757 173.233 153.973 173.639 156.268 176.019Z" fill="black"/>
<path d="M132.696 200.351L138.934 197.962L133.028 182.512L135.377 181.59L141.284 197.031L147.523 194.642L148.306 196.689L133.479 202.371L132.696 200.351Z" fill="black"/>
<path d="M127.305 192.272L129.268 203.507L126.789 203.931L124.854 192.862C124.264 189.495 122.089 187.761 119.168 188.25C116.247 188.739 114.865 191.119 115.482 194.495L117.417 205.563L114.948 205.997L112.985 194.79C112.174 190.178 114.441 186.793 118.892 186.018C123.342 185.243 126.494 187.632 127.305 192.272Z" fill="black"/>
<path d="M93.2279 196.514C93.4307 190.768 97.089 187.29 102.507 187.502L109.4 187.751L108.737 206.467L101.844 206.218C96.3887 206.024 93.016 202.316 93.2279 196.514ZM95.7621 196.606C95.6054 200.997 98.1303 203.893 102.028 203.985L106.276 204.142L106.783 189.836L102.535 189.679C98.6003 189.587 95.9187 192.253 95.7621 196.606Z" fill="black"/>
<path d="M88.3994 204.917L85.9021 204.465L89.2195 186.018L91.7168 186.47L88.3994 204.917Z" fill="black"/>
<path d="M84.0867 194.983C82.2437 200.324 77.2768 202.888 72.1717 201.126C67.0666 199.364 64.7352 194.3 66.569 188.96C68.4028 183.619 73.3604 181.11 78.4379 182.854C83.5153 184.597 85.902 189.698 84.0867 194.983ZM68.9465 189.781C67.5274 193.904 69.1492 197.741 72.8905 199.005C76.6317 200.268 80.2624 198.258 81.6816 194.134C83.1007 190.011 81.488 186.23 77.7191 184.911C73.9502 183.592 70.3379 185.704 68.9465 189.781Z" fill="black"/>
<path d="M53.1613 189.403L56.7644 183.924L49.761 179.312L50.9774 177.467L57.99 182.079L62.2565 175.622L64.376 177.024L54.0736 192.705L44.0293 186.073L45.2365 184.228L53.1613 189.403Z" fill="black"/>
<path d="M42.4535 162.395L43.974 160.771L53.189 169.368L40.3709 183.047L31.3311 174.543L32.8239 172.947L40.0484 179.708L44.0477 175.428L37.5235 169.322L39.0256 167.717L45.5405 173.823L49.8163 169.211L42.4535 162.395Z" fill="black"/>
<path d="M32.446 152.711L37.6894 159.942L42.2231 158.734L43.7989 160.892L24.2539 165.827L22.6689 163.641L33.4412 146.604L35.0078 148.763L32.446 152.711ZM31.2204 154.62L25.6915 163.106L35.4962 160.496L31.2204 154.62Z" fill="black"/>
<path d="M12.984 141.752L15.9236 147.776L30.7874 140.498L31.8932 142.758L17.0294 150.036L19.969 156.05L17.997 156.972L11.0581 142.721L12.984 141.752Z" fill="black"/>
<path d="M20.5771 135.59L9.58368 138.57L8.92942 136.135L19.8031 133.238C23.1113 132.316 24.6409 130.001 23.8853 127.16C23.1297 124.319 20.6509 123.12 17.3427 124.005L6.45059 126.911L5.82397 124.522L16.799 121.598C21.4065 120.371 24.8805 122.345 26.014 126.708C27.1474 131.071 25.1293 134.419 20.5771 135.59Z" fill="black"/>
<path d="M22.6966 103.427L22.8625 105.963L18.4946 107.209C16.154 107.891 15.2417 109.21 15.3984 111.618L15.638 115.307L23.4246 114.809L23.5813 117.346L4.91173 118.545L4.43256 111.046C4.19297 107.356 6.10047 104.875 9.29806 104.672C10.3773 104.563 11.4621 104.816 12.3815 105.392C13.3008 105.969 14.0024 106.835 14.3755 107.854C14.6421 107.091 15.1041 106.412 15.7155 105.885C16.3268 105.357 17.0659 104.999 17.8588 104.847L22.6966 103.427ZM13.1591 110.529C13.0209 108.334 11.6202 107.006 9.67588 107.135C7.73152 107.264 6.4875 108.758 6.62572 110.917L6.93903 115.833L13.4724 115.409L13.1591 110.529Z" fill="black"/>
<path d="M22.1806 88.8536L24.3922 89.1211L22.8809 101.601L4.31274 99.3688L5.79635 87.0088L7.97109 87.2763L6.79157 97.0997L12.597 97.8007L13.6659 88.9366L15.8407 89.1948L14.7441 98.0682L20.955 98.8154L22.1806 88.8536Z" fill="black"/>
</svg>
