
<svg width="210" height="210" viewBox="0 0 210 210" fill="none" xmlns="http://www.w3.org/2000/svg">
<path d="M105.447 17.7565L107.686 17.2768C107.826 18.4262 108.375 19.4865 109.234 20.2627C110.092 21.0388 111.202 21.4787 112.358 21.5013C115.123 21.7412 117.076 20.6528 117.242 18.7895C117.703 13.4858 106.304 16.7787 106.967 9.20592C107.253 6.01446 110.055 4.059 113.906 4.39106C117.27 4.68622 119.435 6.67858 119.979 9.51953L117.685 9.98995C117.471 9.03998 116.953 8.18601 116.209 7.55821C115.465 6.9304 114.537 6.56319 113.565 6.51255C111.17 6.3004 109.511 7.43494 109.354 9.20592C108.903 14.3713 120.412 11.1153 119.712 18.7065C119.417 22.147 116.33 24.001 112.008 23.6228C108.23 23.2908 105.88 21.0402 105.447 17.7565Z" fill="black"/>
<path d="M122.467 14.8971C124.107 9.49194 129.01 6.75245 134.152 8.30206C139.294 9.85167 141.837 14.851 140.197 20.2931C138.556 25.7352 133.746 28.3824 128.558 26.8236C123.37 25.2648 120.854 20.2931 122.467 14.8971ZM137.792 19.5091C139.054 15.3399 137.294 11.5673 133.507 10.4143C129.719 9.26135 126.135 11.429 124.9 15.5982C123.665 19.7673 125.388 23.4938 129.203 24.6468C133.018 25.7998 136.548 23.6598 137.792 19.5367V19.5091Z" fill="black"/>
<path d="M165.123 23.6965L155.392 39.7922L153.301 38.5285L161.53 24.9048L148.269 35.4846L145.993 34.1287L149.163 17.5995L140.989 31.0848L138.87 29.8119L148.601 13.707L151.771 15.6256L148.5 32.5237L161.953 21.7871L165.123 23.6965Z" fill="black"/>
<path d="M167.823 48.6289L166.294 50.2523L157.079 41.5727L169.98 27.9121L179.047 36.4903L177.536 38.0953L170.321 31.2604L166.284 35.5403L172.799 41.7018L171.343 43.3529L164.828 37.1913L160.516 41.7572L167.823 48.6289Z" fill="black"/>
<path d="M189.11 53.3056L185.166 47.8819L171.786 57.6408L170.302 55.6023L183.682 45.8435L179.738 40.429L181.517 39.1377L190.879 52.0511L189.11 53.3056Z" fill="black"/>
<path d="M199.421 69.4749L182.401 77.3429L181.341 75.0553L189.054 71.4949L184.945 62.5847L177.232 66.1451L176.172 63.8299L193.192 55.9619L194.261 58.2771L186.935 61.6623L191.045 70.5725L198.417 67.1874L199.421 69.4749Z" fill="black"/>
<path d="M200.951 74.7139L201.679 77.149L183.728 82.5818L182.991 80.1467L200.951 74.7139Z" fill="black"/>
<path d="M205.54 97.3861L187.036 100.153L186.585 97.1371L200.601 85.4043L185.166 87.7472L184.797 85.3121L203.292 82.5449L203.78 85.7733L190.105 97.2386L205.171 94.951L205.54 97.3861Z" fill="black"/>
<path d="M195.579 119.468L186.087 118.813L186.235 116.701L188.87 116.885C187.083 115.612 186.18 113.592 186.373 110.761C186.705 105.872 190.778 102.026 196.51 102.459C202.241 102.893 205.955 106.97 205.595 112.2C205.537 113.891 204.952 115.522 203.923 116.864C202.894 118.207 201.471 119.195 199.855 119.689L199.145 117.494C200.333 117.138 201.379 116.419 202.139 115.439C202.899 114.458 203.334 113.264 203.384 112.024C203.642 108.261 200.767 105.3 196.362 104.996C191.957 104.691 188.806 107.394 188.539 111.296C188.317 114.496 190.114 116.83 193.146 117.162H193.625L194.04 111.102L196.123 111.24L195.579 119.468Z" fill="black"/>
<path d="M182.595 137.906L180.485 137.196L184.502 125.205L202.269 131.201L198.297 143.016L196.215 142.306L199.375 132.907L193.846 131.062L190.99 139.548L188.907 138.847L191.764 130.361L185.82 128.36L182.595 137.906Z" fill="black"/>
<path d="M176.006 150.405L174.043 149.354L179.729 138.719L196.279 147.583L195.081 149.824L180.531 142.049L176.006 150.405Z" fill="black"/>
<path d="M178.098 152.388L177.296 154.528C176.255 154.027 175.069 153.919 173.954 154.224C172.84 154.529 171.874 155.226 171.233 156.188C169.537 158.383 169.39 160.606 170.883 161.722C175.085 164.969 178.448 153.605 184.447 158.245C186.981 160.201 187.11 163.613 184.751 166.676C182.696 169.341 179.876 170.061 177.176 169.019L178.024 166.842C178.937 167.171 179.931 167.193 180.858 166.905C181.784 166.617 182.591 166.034 183.157 165.246C184.622 163.346 184.539 161.317 183.157 160.256C179.056 157.092 175.619 168.493 169.602 163.844C166.837 161.741 166.985 158.153 169.602 154.722C171.952 151.751 175.085 150.986 178.098 152.388Z" fill="black"/>
<path d="M156.526 171.749L155.042 170.107L164.34 161.686L176.872 175.521L167.657 183.823L166.183 182.199L173.5 175.577L169.583 171.241L162.976 177.228L161.511 175.604L168.118 169.618L163.925 165.006L156.526 171.749Z" fill="black"/>
<path d="M152.397 193.831L150.204 195.104L146.684 169.277L148.877 168.004L152.397 193.831Z" fill="black"/>
<path d="M123.039 194.919L120.375 185.779L122.403 185.188L123.149 187.734C123.73 185.612 125.305 184.044 128.033 183.27C132.724 181.895 137.736 184.386 139.358 189.938C140.98 195.491 138.382 200.371 133.359 201.837C131.756 202.372 130.026 202.393 128.411 201.897C126.795 201.401 125.375 200.413 124.347 199.07L126.19 197.65C126.936 198.641 127.973 199.376 129.155 199.751C130.337 200.126 131.607 200.124 132.788 199.743C136.41 198.683 138.188 194.956 136.953 190.723C135.718 186.489 132.088 184.45 128.346 185.539C125.259 186.461 123.739 188.924 124.43 191.894L124.596 192.346L130.42 190.649L131 192.65L123.039 194.919Z" fill="black"/>
<path d="M105.816 189.403L105.613 187.19L118.127 186.046L119.795 204.697L107.419 205.831L107.226 203.645L117.067 202.723L116.542 196.884L107.65 197.696L107.447 195.51L116.339 194.698L115.768 188.463L105.816 189.403Z" fill="black"/>
<path d="M88.3166 202.363L94.9698 202.953L96.4442 186.488L98.9506 186.71L97.4762 203.184L104.129 203.774L103.936 205.96L88.123 204.539L88.3166 202.363Z" fill="black"/>
<path d="M79.3687 202.336L76.9268 201.653L81.9489 183.611L84.4001 184.294L79.3687 202.336Z" fill="black"/>
<path d="M57.7505 194.144L65.2791 176.997L68.0436 178.224L70.4579 196.349L76.7333 182.043L78.9818 183.029L71.4808 200.158L68.4952 198.848L66.1269 181.148L59.9989 195.113L57.7505 194.144Z" fill="black"/>
<path d="M37.9198 177.542L43.2 181.693L53.447 168.632L55.4282 170.191L45.1535 183.252L50.4245 187.393L49.1068 189.09L36.5652 179.276L37.9198 177.542Z" fill="black"/>
<path d="M41.3477 171.057C37.0627 174.747 31.4785 174.405 27.9676 170.301C24.4567 166.196 25.0188 160.634 29.3037 156.963C33.5887 153.292 39.1361 153.652 42.6286 157.738C46.1211 161.824 45.5958 167.423 41.3477 171.057ZM30.944 158.881C27.6266 161.713 27.0829 165.846 29.6539 168.852C32.2249 171.859 36.3808 171.961 39.6982 169.129C43.0156 166.297 43.5317 162.211 40.9422 159.186C38.3528 156.16 34.2153 156.077 30.944 158.881Z" fill="black"/>
<path d="M29.3958 152.923L19.3515 158.209L18.1904 155.976L28.161 150.756C31.1835 149.169 32.1695 146.54 30.8057 143.93C29.4419 141.32 26.7603 140.702 23.7286 142.288L13.758 147.518L12.5969 145.286L22.6597 140.01C26.8525 137.815 30.7136 138.968 32.7961 142.971C34.8787 146.974 33.561 150.737 29.3958 152.923Z" fill="black"/>
<path d="M19.4898 137.824C14.0345 139.346 9.09532 136.671 7.70386 131.68C7.16058 130.026 7.18062 128.237 7.76086 126.595C8.3411 124.953 9.4488 123.549 10.9107 122.604L12.2192 124.523C11.1499 125.208 10.3371 126.229 9.9071 127.425C9.47713 128.621 9.45415 129.926 9.84174 131.136C10.8554 134.743 14.5598 136.588 18.8079 135.398C23.056 134.208 25.1754 130.786 24.1065 126.939C23.7918 125.656 23.0598 124.513 22.0255 123.692C20.9913 122.87 19.7135 122.416 18.3932 122.401L18.5591 120.188C20.3458 120.218 22.0719 120.841 23.4663 121.959C24.8607 123.078 25.8444 124.629 26.2628 126.368C27.728 131.625 24.9543 136.292 19.4898 137.824Z" fill="black"/>
<path d="M4.1377 103.575L22.8441 102.459L23.0376 104.968L14.569 105.475L15.1127 115.299L23.5813 114.791L23.7287 117.328L5.02233 118.453L4.87489 115.917L12.9196 115.428L12.3298 105.641L4.28514 106.075L4.1377 103.575Z" fill="black"/>
</svg>
