<svg width="122" height="123" viewBox="0 0 122 123" fill="none" xmlns="http://www.w3.org/2000/svg">
<path d="M61.0784 120.24C93.6651 120.24 120.082 93.7978 120.082 61.1796C120.082 28.5614 93.6651 2.11914 61.0784 2.11914C28.4917 2.11914 2.07495 28.5614 2.07495 61.1796C2.07495 93.7978 28.4917 120.24 61.0784 120.24Z" stroke="black" stroke-width="4" stroke-miterlimit="10" stroke-linecap="round"/>
<path d="M61.0784 93.6297C93.6651 93.6297 120.082 79.1015 120.082 61.1801C120.082 43.2587 93.6651 28.7305 61.0784 28.7305C28.4917 28.7305 2.07495 43.2587 2.07495 61.1801C2.07495 79.1015 28.4917 93.6297 61.0784 93.6297Z" stroke="black" stroke-width="4" stroke-miterlimit="10" stroke-linecap="round"/>
<path d="M45.1919 90.6776C61.4674 90.6776 74.6614 77.4709 74.6614 61.1796C74.6614 44.8883 61.4674 31.6816 45.1919 31.6816C28.9163 31.6816 15.7224 44.8883 15.7224 61.1796C15.7224 77.4709 28.9163 90.6776 45.1919 90.6776Z" fill="black" stroke="black" stroke-width="4" stroke-miterlimit="10" stroke-linecap="round"/>
</svg>
