<svg width="210" height="210" viewBox="0 0 210 210" fill="none" xmlns="http://www.w3.org/2000/svg">
<path d="M121.997 6.26337L120.034 24.9048L117.03 24.5728L109.206 8.03436L107.566 23.5766L105.124 23.3183L107.078 4.69531L110.321 5.0366L117.951 21.2153L119.545 6.05122L121.997 6.26337Z" fill="black"/>
<path d="M135.543 27.2849L134.879 29.4064L122.9 25.6522L128.493 7.77637L140.353 11.4659L139.699 13.5597L130.262 10.5989L128.512 16.1885L137.026 18.8635L136.381 20.985L127.867 18.31L126.024 24.2871L135.543 27.2849Z" fill="black"/>
<path d="M167.51 26.5466L153.171 39.663L150.582 38.0857L154.858 22.1376L142.611 33.2063L140.068 31.6013L145.182 12.8584L147.486 14.2604L143.035 29.941L155.014 18.8724L157.779 20.5696L153.42 36.4346L165.317 25.1907L167.51 26.5466Z" fill="black"/>
<path d="M180.715 49.0898C178.024 51.4143 174.808 51.0822 172.173 48.0199L169.196 44.5794L163.667 49.3481L162.009 47.4295L176.172 35.1895L180.872 40.6408C183.461 43.6385 183.378 46.8115 180.715 49.0898ZM179.01 47.2451C180.669 45.8154 180.779 43.8876 179.102 41.9413L176.181 38.5562L170.855 43.1681L173.896 46.7009C175.49 48.5087 177.351 48.6655 179.01 47.2358V47.2451Z" fill="black"/>
<path d="M178.77 71.2731L177.508 69.0594L180.89 66.0247C182.733 64.3736 182.917 62.7963 181.728 60.7025L179.885 57.5203L173.103 61.3943L171.85 59.1898L188.087 49.9014L191.773 56.4319C193.616 59.6326 192.98 62.6949 190.197 64.2906C189.278 64.8429 188.204 65.0787 187.139 64.9621C186.074 64.8455 185.077 64.3829 184.299 63.6449C184.394 64.4535 184.274 65.2728 183.95 66.0196C183.627 66.7665 183.111 67.4143 182.456 67.8971L178.77 71.2731ZM184.216 60.6933C185.304 62.6026 187.147 63.1837 188.824 62.2152C190.501 61.2467 190.971 59.3466 189.902 57.4649L187.46 53.1943L181.774 56.4503L184.216 60.6933Z" fill="black"/>
<path d="M188.308 69.5299C193.661 67.842 198.656 70.314 200.287 75.4424C201.918 80.5709 199.227 85.4503 193.836 87.1383C188.446 88.8263 183.534 86.3451 181.922 81.235C180.309 76.125 183 71.2087 188.308 69.5299ZM193.108 84.7493C197.246 83.4395 199.356 79.8699 198.168 76.1065C196.979 72.3432 193.21 70.6368 189.072 71.9466C184.935 73.2564 182.861 76.7891 184.059 80.5709C185.257 84.3527 189.026 86.0407 193.108 84.7493Z" fill="black"/>
<path d="M190.565 90.5601L192.058 90.4033L192.298 92.8015L191.1 92.9214C188.492 93.1889 187.193 94.6371 187.414 96.7678C187.635 98.8985 189.155 99.9224 191.441 99.6918L204.397 98.3912L204.646 100.919L191.938 102.201C188.105 102.588 185.543 100.586 185.175 96.9154C184.806 93.2443 186.842 90.9383 190.565 90.5601Z" fill="black"/>
<path d="M187.451 118.555L185.239 118.398L186.115 105.826L204.821 107.136L203.9 119.579L201.716 119.422L202.407 109.525L196.555 109.119L195.929 118.048L193.735 117.891L194.362 108.962L188.114 108.52L187.451 118.555Z" fill="black"/>
<path d="M194.141 122.032C199.596 123.564 202.434 128.415 201.024 133.415C200.629 135.11 199.682 136.626 198.333 137.724C196.984 138.823 195.308 139.442 193.569 139.484L193.44 137.196C194.709 137.168 195.932 136.72 196.919 135.922C197.905 135.125 198.601 134.022 198.896 132.787C199.909 129.181 197.707 125.667 193.459 124.486C189.211 123.305 185.608 125.141 184.539 128.95C184.139 130.21 184.17 131.567 184.625 132.808C185.08 134.048 185.935 135.102 187.054 135.804L185.774 137.648C184.251 136.68 183.097 135.229 182.495 133.527C181.894 131.824 181.88 129.97 182.456 128.258C183.894 123.038 188.685 120.492 194.141 122.032Z" fill="black"/>
<path d="M187.681 158.005L190.768 152.065L176.107 144.446L177.259 142.214L191.92 149.833L195.007 143.902L196.951 144.916L189.626 159.02L187.681 158.005Z" fill="black"/>
<path d="M162.708 166.233L161.041 164.767L169.334 155.34L183.378 167.7L175.176 177.025L173.536 175.577L180.06 168.198L175.674 164.324L169.786 171.03L168.136 169.581L174.034 162.876L169.343 158.743L162.708 166.233Z" fill="black"/>
<path d="M159.023 190.363L147.615 175.383L150.056 173.538L167.159 180.235L157.64 167.736L159.603 166.242L171.021 181.222L168.413 183.205L151.697 176.674L160.995 188.868L159.023 190.363Z" fill="black"/>
<path d="M129.157 183.851C130.602 183.325 132.136 183.086 133.672 183.15C134.66 181.804 135.985 180.744 137.515 180.078C142.435 177.864 147.651 179.968 149.909 185.068C152.167 190.169 150.333 195.491 145.403 197.705C140.473 199.919 135.312 197.807 133.009 192.65C131.903 190.344 131.741 187.696 132.557 185.271C131.613 185.306 130.68 185.49 129.793 185.815L129.157 183.851ZM136.215 183.648C137.943 184.297 139.428 185.467 140.463 186.996L138.62 188.241C137.721 186.969 136.424 186.031 134.935 185.576C134.576 186.553 134.419 187.593 134.473 188.633C134.526 189.673 134.79 190.691 135.248 191.627C137.026 195.602 140.832 197.299 144.463 195.676C148.093 194.052 149.338 190.086 147.559 186.111C145.781 182.135 142.03 180.475 138.344 182.098C137.545 182.479 136.823 183.004 136.215 183.648Z" fill="black"/>
<path d="M128.853 191.627L131.129 202.797L128.659 203.295L126.411 192.226C125.729 188.869 123.481 187.199 120.596 187.789C117.712 188.38 116.376 190.778 117.067 194.136L119.315 205.204L116.855 205.711L114.579 194.569C113.657 189.957 115.805 186.535 120.237 185.631C124.669 184.727 127.904 187.015 128.853 191.627Z" fill="black"/>
<path d="M111.114 206.015L108.58 206.163L107.501 187.466L110.036 187.318L111.114 206.015Z" fill="black"/>
<path d="M90.1961 186.683L92.7394 186.886L93.3476 191.405C93.6886 193.831 94.8681 194.92 97.2732 195.095L100.959 195.39L101.586 187.577L104.129 187.78L102.627 206.505L95.1169 205.905C91.4309 205.61 89.247 203.359 89.4958 200.149C89.5433 199.057 89.9518 198.011 90.6573 197.177C91.3628 196.342 92.3253 195.765 93.3937 195.538C92.6749 195.166 92.0665 194.611 91.6298 193.93C91.193 193.248 90.9433 192.463 90.9057 191.654L90.1961 186.683ZM95.8357 197.179C93.6425 197.004 92.1497 198.203 91.9654 200.159C91.7811 202.114 93.1173 203.562 95.2828 203.728L100.204 204.125L100.729 197.567L95.8357 197.179Z" fill="black"/>
<path d="M69.407 200.343L78.8892 191.497L80.9441 184.201L83.3769 184.884L81.3312 192.18L84.7776 204.669L82.1144 203.913L79.4421 193.978L72.0701 201.099L69.407 200.343Z" fill="black"/>
</svg>
