<svg xmlns="http://www.w3.org/2000/svg" width="600" height="610" viewBox="0 0 600 610" fill="none">
<path d="M409.213 0H0V577.559H409.213V0Z" fill="url(#paint0_radial)"/>
<path d="M593.451 0H0V537.306H593.451V0Z" fill="url(#paint1_radial)"/>
<path d="M600 0H0V401.094H600V0Z" fill="url(#paint2_radial)"/>
<path d="M495.689 0H0V608.511H495.689V0Z" fill="url(#paint3_radial)"/>
<path d="M480.577 0H0V452.574H480.577V0Z" fill="url(#paint4_radial)"/>
<path d="M363.882 0H0V428.679H363.882V0Z" fill="url(#paint5_radial)"/>
<path d="M394.552 0H0V610H394.552V0Z" fill="url(#paint6_radial)"/>
<path d="M559.72 0H0V371.759H559.72V0Z" fill="url(#paint7_radial)"/>
<path d="M390.201 0H0V402.036H390.201V0Z" fill="url(#paint8_radial)"/>
<path d="M378.287 0H0V588.685H378.287V0Z" fill="url(#paint9_radial)"/>
<path d="M485.66 0H0V609.471H485.66V0Z" fill="url(#paint10_radial)"/>
<path d="M359.231 0H0V403.434H359.231V0Z" fill="url(#paint11_radial)"/>
<defs>
<radialGradient id="paint0_radial" cx="0" cy="0" r="1" gradientUnits="userSpaceOnUse" gradientTransform="translate(204.607 288.78) scale(204.607 288.78)">
<stop stop-color="#FFA50F"/>
<stop offset="1" stop-color="#FFA50F" stop-opacity="0"/>
</radialGradient>
<radialGradient id="paint1_radial" cx="0" cy="0" r="1" gradientUnits="userSpaceOnUse" gradientTransform="translate(296.725 268.653) scale(296.725 268.653)">
<stop stop-color="#F69CFF"/>
<stop offset="1" stop-color="#F69CFF" stop-opacity="0"/>
</radialGradient>
<radialGradient id="paint2_radial" cx="0" cy="0" r="1" gradientUnits="userSpaceOnUse" gradientTransform="translate(300 200.547) scale(300 200.547)">
<stop stop-color="#5135FF"/>
<stop offset="1" stop-color="#5135FF" stop-opacity="0"/>
</radialGradient>
<radialGradient id="paint3_radial" cx="0" cy="0" r="1" gradientUnits="userSpaceOnUse" gradientTransform="translate(247.845 304.255) scale(247.845 304.255)">
<stop stop-color="#5135FF"/>
<stop offset="1" stop-color="#5135FF" stop-opacity="0"/>
</radialGradient>
<radialGradient id="paint4_radial" cx="0" cy="0" r="1" gradientUnits="userSpaceOnUse" gradientTransform="translate(240.288 226.287) scale(240.288 226.287)">
<stop stop-color="#5135FF"/>
<stop offset="1" stop-color="#5135FF" stop-opacity="0"/>
</radialGradient>
<radialGradient id="paint5_radial" cx="0" cy="0" r="1" gradientUnits="userSpaceOnUse" gradientTransform="translate(181.941 214.34) scale(181.941 214.34)">
<stop stop-color="#FF5828"/>
<stop offset="1" stop-color="#FF5828" stop-opacity="0"/>
</radialGradient>
<radialGradient id="paint6_radial" cx="0" cy="0" r="1" gradientUnits="userSpaceOnUse" gradientTransform="translate(197.276 305) scale(197.276 305)">
<stop stop-color="#FF5828"/>
<stop offset="1" stop-color="#FF5828" stop-opacity="0"/>
</radialGradient>
<radialGradient id="paint7_radial" cx="0" cy="0" r="1" gradientUnits="userSpaceOnUse" gradientTransform="translate(279.86 185.879) scale(279.86 185.879)">
<stop stop-color="#FFA50F"/>
<stop offset="1" stop-color="#FFA50F" stop-opacity="0"/>
</radialGradient>
<radialGradient id="paint8_radial" cx="0" cy="0" r="1" gradientUnits="userSpaceOnUse" gradientTransform="translate(195.101 201.018) scale(195.101 201.018)">
<stop stop-color="#F69CFF"/>
<stop offset="1" stop-color="#F69CFF" stop-opacity="0"/>
</radialGradient>
<radialGradient id="paint9_radial" cx="0" cy="0" r="1" gradientUnits="userSpaceOnUse" gradientTransform="translate(189.143 294.343) scale(189.143 294.343)">
<stop stop-color="#FF5828"/>
<stop offset="1" stop-color="#FF5828" stop-opacity="0"/>
</radialGradient>
<radialGradient id="paint10_radial" cx="0" cy="0" r="1" gradientUnits="userSpaceOnUse" gradientTransform="translate(242.83 304.735) scale(242.83 304.735)">
<stop stop-color="#F69CFF"/>
<stop offset="1" stop-color="#F69CFF" stop-opacity="0"/>
</radialGradient>
<radialGradient id="paint11_radial" cx="0" cy="0" r="1" gradientUnits="userSpaceOnUse" gradientTransform="translate(179.615 201.717) scale(179.615 201.717)">
<stop stop-color="#FFA50F"/>
<stop offset="1" stop-color="#FFA50F" stop-opacity="0"/>
</radialGradient>
</defs>
</svg>
