<svg width="120" height="40" viewBox="0 0 120 40" fill="none" xmlns="http://www.w3.org/2000/svg">
<path d="M40 20C40 31.0457 31.0457 40 20 40C8.9543 40 0 31.0457 0 20C0 8.9543 8.9543 0 20 0C31.0457 0 40 8.9543 40 20Z" fill="black"/>
<path fill-rule="evenodd" clip-rule="evenodd" d="M80 18.5002L63.6212 18.5001L75.0607 7.06067L72.9393 4.93935L61.5001 16.3786L61.5002 1.67369e-05L58.5002 0L58.5001 16.3788L47.0607 4.93935L44.9393 7.06067L56.3788 18.5001L40 18.5L40 20V21.5L56.3786 21.5001L44.9393 32.9393L47.0607 35.0607L58.5001 23.6212L58.5 40.0002L61.5 40.0002L61.5001 23.6214L72.9393 35.0607L75.0607 32.9393L63.6215 21.5001L80 21.5002V40H120V0H80V18.5002ZM100 38C109.941 38 118 29.9411 118 20C118 10.0589 109.941 2 100 2C90.0589 2 82 10.0589 82 20C82 29.9411 90.0589 38 100 38Z" fill="black"/>
</svg>
